<svg xmlns:xlink="http://www.w3.org/1999/xlink" xmlns="http://www.w3.org/2000/svg" width="181" height="38" viewBox="0 0 181 38" fill="none">
<path d="M63.3333 0H0V38H63.3333V0Z" fill="#231F20"/>
<path d="M9.47168 7.91455H14.6103V8.85206H10.5546V11.9025H14.0546V12.8543H10.5546V16.2617H14.6627V17.2647H9.47168V7.91455Z" fill="white"/>
<path d="M17.4629 7.91455H18.5732V17.2635H17.4629V7.91455Z" fill="white"/>
<path d="M21.6375 7.91455H22.7466V16.2605H27.1498V17.2635H21.6375V7.91455Z" fill="white"/>
<path d="M29.7515 7.91455H34.8901V8.85206H30.8308V11.9025H34.332V12.8543H30.8308V16.2617H34.9389V17.2647H29.7515V7.91455Z" fill="white"/>
<path d="M38.0815 7.91455H43.2202V8.85206H39.1657V11.9025H42.6668V12.8543H39.1657V16.2617H43.2737V17.2647H38.0815V7.91455Z" fill="white"/>
<path d="M46.418 7.60986H46.5632L52.8252 14.9267V7.91443H53.9093V17.5679H53.7642L47.5021 10.2511V17.2634H46.4192L46.418 7.60986Z" fill="white"/>
<path d="M9.47168 20.4062H14.6758V21.3866H10.5677V24.6215H14.2926V25.5994H10.5677V29.7635H9.47168V20.4062Z" fill="white"/>
<path d="M17.4758 20.4062H18.5862V29.7552H17.4758V20.4062Z" fill="white"/>
<path d="M24.2129 29.0559C25.4148 29.0559 26.1812 28.3695 26.1812 27.3903C26.1812 26.4112 25.4946 25.9388 24.3319 25.4094L23.6821 25.1203C22.2957 24.4862 21.5948 23.6022 21.5948 22.4791C21.5948 21.1192 22.6789 20.0996 24.3033 20.0996C25.0923 20.1047 25.865 20.3248 26.5382 20.7361V21.9259C25.7457 21.331 25.0055 21.0407 24.2522 21.0407C23.2489 21.0407 22.6146 21.6225 22.6146 22.4279C22.6146 23.2334 23.1954 23.7485 24.3712 24.2637L25.0316 24.554C26.4978 25.2012 27.2511 26.1911 27.2511 27.3927C27.2511 28.9393 26.0491 30.0744 24.2522 30.0744C23.4191 30.0744 22.5218 29.8364 21.5841 29.3605L21.4924 28.0518C22.5218 28.6859 23.368 29.0559 24.2129 29.0559Z" fill="white"/>
<path d="M29.7349 20.4062H30.8309V24.3145H36.0362V20.4062H37.1298V29.7552H36.0338V25.3187H30.8309V29.7552H29.7349V20.4062Z" fill="white"/>
<path d="M40.1702 20.4062H45.3088V21.3438H41.2531V24.3942H44.7543V25.346H41.2531V28.7534H45.3612V29.7564H40.1702V20.4062Z" fill="white"/>
<path d="M47.9768 20.4062H49.9582C52.6394 20.4062 53.9604 21.3961 53.9604 23.126C53.9604 24.4466 53.0357 25.5162 51.5172 25.7672L54.9112 29.7552H53.5117L50.2486 25.9076H49.0728V29.7504H47.9768V20.4062ZM50.0237 25.0545C51.9004 25.0545 52.8513 24.3681 52.8513 23.151C52.8513 21.8173 51.8338 21.3152 49.8392 21.3152H49.0728V25.0534L50.0237 25.0545Z" fill="white"/>
<path d="M78.1971 18.0642V9.48976H79.956C84.5341 9.48976 86.8678 10.6414 86.8678 13.7026C86.8678 16.4913 84.6852 18.0665 80.3796 18.0665L78.1971 18.0642ZM75.6873 28.8455H78.1983V20.0296H80.8973L88.3815 28.8455H91.5947L83.8058 19.6977C87.2915 19.123 89.4098 16.671 89.4098 13.6395C89.4098 9.66941 86.3834 7.40058 80.2285 7.40058H75.6873V28.8455ZM96.0502 28.8455H107.951V26.547H98.5363V18.728H106.567V16.5496H98.5363V9.54805H107.839V7.40058H96.0574V28.8455H96.0502ZM113.959 28.8455H116.441V12.7603L130.805 29.5427H131.138V7.40058H128.657V23.487L114.291 6.70459H113.958V28.8455H113.959ZM137.808 28.8455H149.709V26.547H140.285V18.728H148.315V16.5496H140.285V9.54805H149.59V7.40058H137.808V28.8455ZM161.897 29.7545L167.472 13.1232L172.654 29.7545H172.957L180.501 7.40058H177.987L172.957 23.3656L167.721 6.70935H167.44L161.835 23.3656L156.775 7.40058H154.112L161.566 29.7545H161.897Z" fill="#231F20"/>
</svg>