<?xml version="1.0" encoding="UTF-8"?>
<svg id="Layer_2" data-name="Layer 2" xmlns="http://www.w3.org/2000/svg" viewBox="0 0 1015.19 235.52">
  <path d="m124.58,169.69c12.32-16.46,19.21-42.66,18.91-71.85.3-29.22-6.59-55.41-18.9-71.85C112.79,9.08,92.26-.56,71.77.03,51.27-.58,30.73,9.06,18.92,25.97,6.6,42.43-.29,68.62,0,97.82c-.3,29.22,6.59,55.41,18.9,71.85,11.81,16.9,32.34,26.6,52.85,25.96,21.34.44,40.79-9.05,52.82-25.94Zm-52.8,17.49c-64.5-2.13-64.55-176.44-.05-178.7,12.55.16,23.82,7.7,32.57,21.82,20.64,31.09,20.64,103.96,0,135.05-8.76,14.13-20.01,21.67-32.52,21.83Z"/>
  <path d="m463.32,34.58c7.57,0,13.72-7.71,13.72-17.22-.74-22.85-26.69-22.85-27.43,0-.01,9.51,6.13,17.22,13.71,17.22Z"/>
  <path d="m562.11,118.53c-2.85-.15-4.06,2.67-4.07,5.12v.1c-2.88,51.46-21.28,55.18-31.72,56.39-7.11.38-14.18-2.57-19.21-7.55-4.17-3.92-7.3-8.86-10.19-16.06-10.64-21.22-15.39-111.46,26.39-100.68,2.28.81,5.32,2.47,6.91,5.78,3.05,6.34,3.06,9.87,4.18,14.74,1.14,4.93,2.37,9.88,4.66,14.68,2.31,4.69,7.42,6.15,12.15,5.33,1.98-.3,3.93-1.03,5.5-2.29,6.92-5.72,6.14-13.55,4.59-19.27-4.52-16.65-23.71-29.51-40.32-29.51-19.65.86-33.78,9.35-42.6,23.01.1,22.27.32,65.36.33,87.1-.02,9.91-.02,18.49,1.27,21.54.49,1.66,1.69,2.85,7.64,2.79,5.54.06,9.47,4.7,8.09,10.01,8.25,3.61,16.96,6.1,26.01,5.46,15.6-.74,29.59-11.25,35.82-25.39,6.52-14.25,7.74-27.77,8.43-45.98.11-3.34-.99-5.22-3.86-5.32Z"/>
  <path d="m455.93,108.88c-.02,13.82.06,49.76.17,63.7.34,6.1.95,7.03,7.11,7.34,6.78-.59,12.87,5.24,8.98,12.1,7.97-.02,14.43-.03,14.43-.03,4.07-.02,5.18-1.32,5.62-2.81,1.09-3.57-1.7-6.06-5.1-5.94-2.75,0,.3,0,.28,0-12.38.06-12.23-4.38-12.23-27.81-.04-20.67-.17-60.09-.3-81.13h0c-.04-2.79-.02-21.67-.02-24.93-.01-.53-.15-1.08-.37-1.56-.82-1.93-3.02-1.99-4.66-1.07-5.11,2.55-15.21,7.4-23.19,11.26,9.53,15.16,9.32,30.95,9.28,50.89Z"/>
  <path d="m140.16,146.16c0,7.71,0,15.42,0,23.04,0,7.19,1.93,12.99-13.27,14.39-3.58.57-5.56,1.7-5.56,4.45,0,1.62.21,4.03,5.85,4.03h53.94c.82,0,1.54-.05,2.17-.14,3.5-.33,4.87-2.87,3.95-5.98h0c-.17-.45-.41-.83-.75-1.14h0c-1.12-1.01-3.09-1.09-5.58-1.21-20.8-.99-19.41-3.11-19.41-21.27,0-10.56-.07-28.12-.07-38.51.1-17.4-1.14-29.84,4.26-42.55,3.42-8.32,11.53-21.7,17.56-6.91,13.62,24.68,30.07-9.92,16.78-23.45-11.42-13.07-23.96-.73-30.99,10.01-1.76,2.63-3.37,5.37-4.84,8.17-.42.77-.78,2.05-1.91,1.56-.35-.16-.58-.5-.58-.9v-21.33c0-.7-.22-1.36-.72-1.84-.71-.69-1.88-.82-2.76-.42-3.66,1.73-10.18,4.79-16.7,7.88,3.7,13.1,5.61,28.03,5.45,43.8.18,17.61-2.22,34.18-6.83,48.32Z"/>
  <path d="m362.48,172.7c1.53-1.94,2.74-3.69,4.06-5.71,2.33-3.58,5.29-4.11,6.85-4.11,2.51,0,5,1.38,6.2,3.42,2.29,3.91-.23,9.03-1.46,11.11-3.47,6.29-7.4,11.26-11.51,14.71,16.63-.04,31.81,0,34.75-.12,1.56,0,2.5-.62,3.06-1.45.12-.16.21-.33.28-.5.32-.68.45-1.44.47-2.12,0-2.73-.97-3.76-2.59-4.18-17.39-.9-19.6-.53-19.35-28.25,0-10.56-.12-51.76-.12-62.48,0-7.56.85-12.29,3.8-19.11,1.01-2.29,2.4-4.41,4.11-6.25,8.25-9.26,24.65-11.55,32.31-.39,10.27,16.07,6.96,59.73,7.52,86.85-.04,6.11-.12,12-.8,19.04-.77,9.46-7.27,9.93-12.81,10.22-4.61.24-7.98-.54-7.98,4.54.05,1.75.78,4.07,3.81,4.07h53.03c2.1-.16,3.83-2.06,3.75-4.17.02-3.34-3.71-4.72-6.57-4.43-7.7-.02-10.6-3.09-10.68-10.76-.1-11.08-.18-47.55-.18-59.3-.07-16.19.51-28.14-2.69-39.56.01,0,.01.01.02.01-1.41-5.04-3.41-9.92-6.27-14.29-.01,0-.01.01-.02.01-13.67-20.78-38.49-16.88-53.86-.29-1.96,2.07-3.78,4.26-5.45,6.59-.21.27-.49.47-.83.45-.55-.01-.97-.55-.96-1.09.15-4.42.22-16.6.22-16.6-.01-.53-.14-1.05-.47-1.46-.87-1.12-2.56-1.25-3.79-.69-5.16,2.33-15.3,7.37-23.34,11.4,8.17,13.9,7.5,31.37,7.56,47.73.17,22.55-.53,44.12-.07,67.16Z"/>
  <path d="m189.95,85.87c-1.96,13.94.07,28.95,8.19,40.71,1.24,1.78,2.59,3.48,4.09,5.05.66.7,1.33,1.38,2.04,2.04.47.43.43,1.18-.09,1.56-8.67,6.6-12.9,11.31-12.57,18.07.54,4.95,4.84,9.66,12.96,14.29.66.36.69,1.36.02,1.77-5.81,3.55-11.66,7.32-16.03,12.62h0c1.44,1.09,2.45,2.84,2.45,5.72,0,6.05-4.82,7.56-8.49,7.83h0c-.48,3.27-.44,6.59-.07,9.9,3.82,25.88,36.73,31.32,58.6,29.88,15.87-1.15,32.45-6.73,41.55-20.59,11.91-17.09,10.28-43.76-7.88-55.88h0c-7.19-4.87-15.99-6.79-24.59-6.73-9.83-.08-18.77,0-28.13-1.85-3.86-.78-7.59-1.89-11.27-3.49-.66-.28-.8-1.2-.38-1.77l2.29-4.94c.08-.2.25-.33.45-.38h0c.2-.03.42,0,.6.06,1.78.7,2.9,1.3,4.14,1.82,1.6.67,3.42,1.2,7.12,1.61,10.9,1.29,22.61-.74,31.26-7.85,21.14-18.1,22.69-55.13,5.85-77.11-.61-.75.21-1.53.71-2.08,1.22-1.29,2.67-2.41,4.28-3.18,6.05-2.81,7.12,5.24,9.16,10.05,1.38,3.68,5.81,5.29,9.42,4.19h0c4.02-.92,5.73-4.77,6.8-8.34,3.05-9.61.52-21.76-10.01-25.21-8.84-2.88-16.48,4.05-21.27,10.75-1.56,2.1-2.99,4.28-4.38,6.49-.35.47-.55,1.19-1.2,1.28-.83.04-1.44-.74-2.14-1.07-3.01-1.84-6.23-3.31-9.59-4.35-12.73-4.04-27.29-1.29-37.65,7.14h0c3.56,7.53,2.54,16.71-.4,22.98-3.58,7.29-9.16,11.22-15.84,9.01Zm41.45-31.33c5.34.07,10.13,3.42,13.86,9.69,8.78,13.8,8.78,46.16,0,59.96-2.95,5.29-8.39,9.84-13.83,9.69-27.87-1.21-26.99-78.86-.03-79.34Zm-20.99,121.48c9.25-6.85,24.26-5.93,34.91-3.17,13.69,3.64,24.09,12.11,23.81,25.74.2,12.58-8.18,23.23-20.09,26.86-4.8,1.56-9.93,2.04-14.95,1.57-38.81-3.71-39.54-39.81-23.68-51Z"/>
  <path d="m283.39,71c-1.73,3.24-3.03,6.72-3.84,10.3-2.81,9.02-.82,21.48,9.05,23.55.73.15,1.5.25,2.31.29,4.83-.02,8.92-3.3,10.56-7.77,2.27-5.63,2.41-11.63,1.91-17.55-1.2-8.88-.53-20.7,8.88-24.83.59-.29,1.2-.53,1.83-.74.36-.11.73-.21,1.13-.3.02,0,.04,0,.06,0,.09-.02.18-.04.28-.06,1.01-.22,2.13-.37,3.32-.38.46,0,.92,0,1.4,0,7.3.3,16.56,4.83,18.8,22.51,1.58,12.5,1.14,18.1-1.31,21.31-.02.03-.04.06-.06.09-1.44,1.85-3.62,2.77-6.37,4.03-11.71,5.36-24.4,11.22-39.77,18.84-16.17,8.01-20.28,21.78-21.11,32.31.69.12,2.13.67,4.59,2.26h0c13.79,8.71,19.14,22.47,18.69,36.89v.2c10.9,4.56,24.79,3.57,33.51-4.94.3-.3.59-.62.89-.93.02-.02.04-.04.06-.07.25-.27.5-.54.74-.83.01,0,.01-.02.02-.03,3.12-3.52,5.68-7.59,7.99-11.6.1-.18.25-.31.43-.39.55-.21,1.25.11,1.34.81,2.33,16.75,10.19,22.58,18.93,19.48.26-.09.51-.2.77-.3.15-.06.3-.12.45-.18.3-.14.61-.29.92-.45.15-.08.3-.14.44-.22.09-.05.17-.11.26-.16.98-.55,1.96-1.2,2.94-1.96.27-.21.54-.42.81-.65.07-.05.13-.11.2-.16,4.45-3.71,7.84-8.65,10.67-13.68,1.22-2.25,3.18-6.12.86-8.32-1.05-.91-2.25-1.12-3.37-.85-.04,0-.09.02-.13.03s-.07.02-.11.03c-1,.27-2.03.98-2.95,2.39-1.75,2.69-3.4,5.05-5.94,8.03-.11.12-.23.22-.37.32-.08.05-.16.1-.24.14-.01,0-.03,0-.04.02-.8.36-1.81.28-2.53-.21h0c-.2-.11-.37-.28-.5-.47-.89-1.33-.92-6.38-.93-9.07-.02-8.15.01-16.16.06-24.24.11-15.85.18-31.16.11-46.96-.08-15.71-1.15-32.6-12.64-44.22h-.01c-5.91-5.72-13.15-8.18-20.58-8.29-.19,0-.37,0-.56,0h-.61c-3.73.06-7.51.71-11.21,1.88-.07.02-.14.04-.2.06-.37.12-.73.24-1.1.37-5.04,1.74-9.84,4.36-14.02,7.59-.41.32-.81.64-1.21.96-1.19,7.71-4.21,15.92-13.5,16.13Zm56.15,46.83c-.04,9.82-.21,22.3-2.53,33.33-.93,6.38-2.91,12.44-7.06,17.72-.76,1.05-1.59,2.04-2.5,2.95-6.16,6.81-20.06,10.49-26.62,2.16-.58-.74-4.29-4.79-4.63-16.81-.77-27.79,20.02-37.85,42.53-47.88.19-.1.47-.02.59.08.1.08.27.26.28.58-.04,2.63-.05,5.25-.06,7.87Z"/>
  <g>
    <path d="m859.07.22c-7.57,0-13.72,7.71-13.72,17.22.74,22.85,26.69,22.85,27.43,0,0-9.51-6.13-17.22-13.71-17.22Z"/>
    <path d="m991.04,113.65c-10.26-6.12-26.92-10.66-32.64-22.28-1.12,2.61-2.85,4.91-5.19,6.89-5.3,4.21-12.7,4.19-17.41,1.47,2.06,9.59,8.01,18.18,16.79,22.94.24-1.8,1.03-4.68,3.67-6.27,2.79-1.9,7.72-.79,9.25,1.22,2.91,2.81,1.86,8.66,1.77,12.63,6.05,3.25,12.63,5.55,17.74,10.34,10.05,10.67,10.92,25.5,4.08,38.11h0c-2.69,5.34-8.82,7.86-14.51,8.36-4.94.42-10.14-.44-14.37-3.12h0c-1.93-1.41-3.68-2.92-5.26-4.58-1.82,2.73-3.89,5.23-6.18,7.48,7.38,6.76,17.48,9.71,27.37,9.07,11.98-.31,23.88-5.82,30.85-15.74,15.25-20.98,8.81-55.95-15.96-66.52Z"/>
    <path d="m927.01,122.64c1.64,18,3.39,35.21,5.23,52.66,4.73-2.53,9.37-8,12.03-13.37-5.08-13.12-6.54-28.08-9.36-40.16-.06-.33-.15-.62-.31-.89-1.62-3.19-7.99-2.16-7.59,1.76Z"/>
    <path d="m1006.82,48.71c-.23-3.18-4.74-3.97-6.8-2-.62.54-.96,1.33-1,2.16-.09,2.3.02,6.09.01,8.55-.01.43-.28.85-.66,1.04-.41.19-.85.07-1.2-.23-1.96-1.68-6.22-5.69-6.74-6.14-12.95-11.05-32.35-7.81-44.13,3.76,4.12,3.74,7.55,8.1,9.93,12.83,1.51-4.92,4.04-9.61,8.92-12,6.06-3.05,14.01-2.15,19.2,2.24,13.53,12.57,17.16,37.14,21.08,55.93.3,1.56,1.76,2.71,3.35,2.69,2.17.36,4.62-1.32,4.32-3.67h0c-1.28-13.29-6.07-63.01-6.28-65.16Z"/>
    <path d="m952.55,176.63h0c9.65-15.69,10.74-34.45,11.48-52.41.32-3.84-1.94-6.18-5.55-5.04-2.07.88-2.49,3.57-2.49,4.95,0,.12-.01.23-.02.34h0c-.72,14.36-2.78,29.19-9.97,41.54h0c-4.55,7.86-12.2,14.37-21.35,15.47h0c-7.74,1.03-15.71-1.92-21.21-7.39-4.47-4.1-7.87-10.14-10.19-16.06-8.16-19.85-10.32-55.89-3.12-79.04,4.32-13.89,13.91-26.37,28.18-21.64,1.96.71,4.47,2.07,6.11,4.61,2.42,4.19,3.46,8.87,4.2,13.28,1.17,5.88,2.55,11.81,5.08,17.31,1.31,2.7,3.86,4.72,6.79,5.28,8.16,1.63,14.74-4.06,15.79-11.86h0c.5-3.74-.15-7.38-1.21-10.86h0c-4.09-12.83-15.64-22.5-28.21-26.56-11.72-3.97-25.51-.57-35.42,5.15-7.33,4.12-12.92,9.94-17.33,17.06.11,21.56.31,63.85.32,84.84-.02,9.92-.02,18.48,1.27,21.54.5,1.68,1.69,2.84,7.64,2.79,6.02,0,10.02,5.65,7.72,11.16,4.29,1.32,8.1,3.27,12.45,4.22,10.1,2.56,21.11,1.92,30.59-2.54h0c2.95-1.37,5.75-3.05,8.32-5.05h0c1.27-1,2.52-2.04,3.67-3.19h0c1.32-1.28,2.56-2.65,3.71-4.09.99-1.23,1.91-2.5,2.75-3.81Z"/>
    <path d="m882.89,183.41h-1.14c-.08,0,1.46,0,1.42,0-4.88.03-8.1-.7-9.78-3.2-1.32-1.94-1.7-4.28-1.99-6.67-.46-4.28-.43-9.2-.45-13.79.01-22.2-.18-60.2-.29-82.8-.05-4.85-.03-22.28-.03-27.41,0-1.63-1.26-3.4-3.04-3.22-1.96.23-3.24,1.33-5.21,2.17-4.3,2.11-8.7,4.22-13.04,6.32,1.59,16.67,5.57,58.26,5.57,58.33.43,3.41-2.03,6.59-5.32,7.34,0,2.81.01,5.65.01,8.53,10.64,20.48,7.6,48.58-12.3,63.14h.91c14.61.14,29.82,0,44.39,0,1.99-.05,4.15-.31,5.11-2.08,1.57-3.47-.61-6.73-4.82-6.64Z"/>
    <path d="m786.9,165.16c-3.68-8.74-5.52-18.17-7.16-27.48.02,10.97-.33,24.34.04,36.23,2.42-2.69,4.12-6.95,7.12-8.75Z"/>
    <path d="m843.09,181.79s0,0,0,0c2.63-3.39,4.66-7.24,6.11-11.28h0c3.73-10.4,3.8-22.06.39-32.57h0c-3.38-10.58-10.93-20.01-21.23-24.49-9.04-5.35-21.52-9.35-28.97-17.64-7.59-9.39-8.45-24.07-2.07-34.19,1.41-2.23,3.58-3.97,5.97-5.14,6.06-3,13.98-2.19,19.14,2.24,11.44,11.18,15.25,27.68,18.7,42.81.96,4.47,1.82,8.84,2.67,12.96.31,1.57,1.75,2.69,3.32,2.69.83.1,1.7-.01,2.43-.42h0c1.23-.56,2.01-1.91,1.85-3.25h0c-1.34-14.01-2.76-28.87-4.11-43.03h0c-.44-4.65-.98-10.25-1.34-14.05h0c-.23-2.42-.59-6.17-.77-8.09-.19-2.91-4.03-3.84-6.2-2.42-.91.53-1.49,1.52-1.53,2.57-.05,1.25-.04,3.15-.02,5.08.01,1.12.02,2.28.02,3.36-.01.22-.09.45-.22.64-.4.58-1.21.82-1.84.45-2.5-2.05-4.73-4.5-7.32-6.57-3.93-3.15-8.65-5.28-13.63-6.05-15.84-2.41-32.51,7.85-38.16,22.72,4.42,13.81,3.34,29.69,3.53,44.44,2.9,4.25,6.96,7.8,11.56,10.29,7.96,4.37,16.05,8.3,24.06,12.51,12.93,6.34,18.28,22.92,13.86,36.12-1.36,4.02-2.93,8.52-6.26,11.41-6.2,5.23-15.92,5.29-22.54.82-1.92-1.49-3.64-3.13-5.2-4.89-1.66,2.99-3.42,5.67-5.26,8.03,4.77,4.43,10.78,7.57,17.26,8.46,8.46,1.13,17.42,0,24.94-4.18h0c1.9-1.04,3.69-2.28,5.36-3.65,2.04-1.67,3.9-3.59,5.5-5.69Z"/>
    <path d="m714.14,161.59c.12-.34.24-.69.36-1.04h0c7.69-23.34,2.82-60.42-24.94-67.82-.48-.14-1.13-.28-1.27-.81-.16-.45.01-1,.52-1.25,2.56-1.24,4.99-2.72,7.2-4.43h0c15.85-12.17,18.11-34.58,12.42-52.7-4.03-15.03-17.54-24.84-32.38-27.84-4.42-.95-9.1-1.44-13.95-1.44-15.79,0-31.28,0-46.92.01h-15.71c-1.52-.01-3.17.32-4.25,1.08-2.76,1.68-2.31,7.32,1.25,7.88,6.45.57,15.01-.18,16.64,7.92.81,3.93.57,7.34.66,11.95.18,17.21.22,34.33.2,51.46-.03,28.54-.22,57.12-.22,86.21,0,4.07-.39,6.83-1.53,8.75-2.3,4.01-9.01,4.27-13.53,4.74-3.04.27-5.03.76-4.98,4.81-.12,1.6.89,3.11,2.32,3.78,1.05.52,2.26.33,3.4.36,2.8,0,5.58,0,8.36-.02,10.52-.04,21.02-.12,31.54-.13,9.79-.13,19.58.37,29.38.04,10.33-.67,20.7-3.58,29.29-9.47h0c1.31-.92,2.59-1.89,3.8-2.94,5.87-4.99,10.17-11.71,12.34-19.1Zm-76.51-112.37c.06-10.19-.13-24.65.07-34.11.77-2.54,4.62-1.87,6.68-1.97,4.42,0,8.82.07,13.21.56,11.3,1.03,21.46,6.12,26.54,16.72,6.87,13.07,6.12,28.18,1.16,41.78,0,.01-.01.01-.01.02-5.7,14.9-20.55,16.74-34.61,16.8-3.72-.01-7.54.1-11.26-.12-1.37-.19-1.78-.82-1.78-2.9,0,.01,0-18.68,0-36.78Zm54.89,96.7c-.73,10.21-3.69,20.86-10.37,28.65-4.83,5.72-12.47,9.98-20.37,9.75-3.18.09-6.4,0-9.58-.06-2.94,0-5.98-.12-8.64-1.4-5.37-2.4-5.46-7.91-5.75-13.46-.14-3.19-.12-6.51-.11-9.65-.03-10.69-.07-21.15-.08-31.82-.01-9.54,0-19.12.04-28.79,0-.45.15-1.26,1.23-1.26h2.76c3.64-.01,7.28-.02,10.91.11,15.1.33,30.48,3.79,36.33,19.47,2.99,8.32,4.33,19,3.63,28.46Z"/>
    <path d="m788.92,182.48c1.26-1.81,2.41-3.7,3.5-5.63,1.1-1.85,2.71-5.51,1.48-7.61-.58-.99-2.16-1.96-3.9-1.62-.04,0-.09.02-.13.03s-.07.02-.11.03c-.22.07-1.31.43-2,1.21-.05.06-.66.78-.87,1.12,0,0-.01,0-.01.02-2.01,2.7-3.77,5.63-6.09,8.15-.09.08-.18.16-.28.23-.08.05-.16.1-.24.14-.01,0-.03,0-.04.02-1.06.53-2.52.23-3.12-.63-.89-1.28-.92-6.58-.93-9.07-.06-22.72.27-41.63.19-62.14-.08-19.25.88-39.46-12.66-53.29-14.1-13.55-35.31-8.88-49.06,2.24-.66,13.95-7.38,27.57-18.88,35.04h0s-.16.09-.15.22h0c.01.14.15.21.16.22h0c6.7,2.89,12.33,7.75,16.58,14.32,3.04-1.26,5.3-3.97,6.47-7.02,2.33-5.64,2.36-12.31,1.89-17.48-1.15-8.97-.61-20.63,8.9-24.9.5-.25,1.15-.5,1.89-.72,1.99-.66,4.1-.92,6.18-.75,7.3.3,16.56,4.83,18.8,22.51,1.58,12.5,1.14,18.1-1.31,21.31-.04.06-.08.11-.13.16-1.44,1.8-3.57,2.77-6.3,3.96-9.73,4.24-19.32,8.69-30.87,14.44,1.78,5.57,2.91,11.39,3.26,17.12,8.5-11.68,23.47-18.54,35.07-23.77.19-.1.46-.02.58.08.1.08.27.26.27.58-.16,13.3.31,26.95-2.53,41.2-1.05,7.29-3.43,14.16-8.79,19.92-6.84,8.14-22.58,11.88-28.26.29-.41-.65-.77-1.38-1.11-2.17-.3-.78-.55-1.59-.78-2.45-3.28,7.47-8.47,13.71-15.19,18.44,11.72,11.62,33.46,13.52,45.11.97,3.44-3.74,6.27-8.14,8.75-12.5h.01c.05-.1.11-.16.18-.22.55-.47,1.54-.17,1.64.63.39,2.71.92,5.34,1.76,7.93,2.08,7.02,7.39,13.99,15.54,12.03h.01c1.16-.29,2.31-.68,3.38-1.23h0c2.63-1.35,5-3.17,7.09-5.26h0c1.86-1.85,3.5-3.9,5.05-6.1Z"/>
  </g>
</svg>