<svg viewBox="0 0 3406.99 2482.73" xmlns="http://www.w3.org/2000/svg" id="Layer_1"><defs><style>.cls-1{fill:#424242;}</style></defs><path d="M643.19,56.84c-21.08-10.72-44.81-2.68-63.26,5.36l-28.99,13.39c-18.45,8.04-36.9,18.75-55.35,26.79-44.81,21.43-86.97,40.18-131.78,61.61-50.08,21.43-100.15,42.86-152.87,66.97-52.71,26.79-108.06,48.22-160.77,77.68-10.54,5.36-21.09,13.39-31.63,21.43C.1,346.14-5.17,375.61,5.37,397.04c10.54,18.75,28.99,26.79,50.08,29.47,31.63,8.04,65.89,5.36,97.52,10.71,26.36,5.36,52.71,8.04,73.8,24.11,39.53,26.78,60.62,72.32,60.62,117.86v1805.48c0,26.79,21.09,48.22,47.44,48.22h284.64c26.36,0,47.44-21.43,47.44-48.22V115.77c2.63-21.43-2.64-48.22-23.72-58.93Z" class="cls-1"></path><path d="M3405.31,1195.3c-5.27-115.18-26.36-230.37-65.89-342.88-44.81-123.22-108.06-241.09-187.13-345.56-192.4-251.8-479.68-433.96-790.68-490.21-329.45-56.25-679.99,32.14-951.46,233.05-268.83,198.23-453.32,514.32-500.77,849.16-47.44,337.52,44.81,701.83,250.38,972.39,18.45,26.79,39.53,50.9,63.25,75,113.33,125.9,253.02,230.37,411.16,283.95,5.27,2.68,10.54,2.68,18.45,5.36,2.64,0,7.91,2.68,10.54,2.68,26.35,0,47.44-21.43,47.44-48.22v-2.68c0-37.5-36.9-66.97-57.98-91.08-168.68-187.51-237.21-490.21-260.93-733.98-23.72-273.23,21.09-648.26,166.05-940.24,36.9-72.32,81.7-141.97,137.05-203.58,118.6-133.94,284.64-227.69,461.23-230.37,171.31-2.68,334.72,80.36,455.96,203.58,118.6,120.54,197.67,275.91,255.65,433.96,84.34,233.05,113.33,500.93,81.71,747.37-34.26,249.12-173.95,618.79-461.23,653.62-163.41,18.75-282.01-115.19-334.72-257.16-42.17-115.19-44.81-259.84-34.26-391.1,26.36,40.18,50.08,77.68,50.08,77.68,2.64,2.68,2.64,5.36,5.27,8.04,44.81,72.33,110.7,176.8,150.23,241.09,47.44,75,97.51,18.75,121.24-40.18,39.53-88.4,50.08-174.12,7.91-262.52-34.26-77.68-81.71-147.33-126.51-216.98-23.72-37.5-47.44-75-65.89-117.86-42.17-93.76-63.26-182.16-55.35-278.59,0,0,2.63-13.39,2.63-29.46v-8.04c2.64-16.07,5.27-34.82,7.91-48.22l166.04,254.48c7.91,16.07,18.45,29.46,34.26,34.82,21.09,8.04,44.81-10.71,57.98-26.78,44.81-58.94,50.08-125.9,34.26-198.23-2.64-8.04-5.27-16.07-7.91-24.11-5.27-18.75-13.18-37.5-21.08-56.26l-171.32-361.63c-10.54-18.75-18.45-42.86-39.53-53.57-2.63,0-5.27-2.68-7.9-2.68s-5.27,0-10.54-2.68h-23.72c-10.54,2.68-18.45,5.36-26.35,10.72,0,0-2.64,0-2.64,2.68-21.08,13.39-36.9,34.82-52.71,53.57-73.8,99.12-150.23,195.55-224.03,294.66-23.72,32.14-50.08,69.65-76.43,107.15-31.63,45.54-63.26,96.43-55.35,152.69,5.27,26.79,26.35,58.93,52.71,53.57,15.82-2.68,28.99-16.07,42.17-29.46,55.35-61.61,142.32-158.05,195.03-219.66,2.64-2.68,5.27-8.04,10.54-10.72-23.72,155.37-76.43,297.34-155.5,428.6-79.07,133.94-171.32,259.84-247.75,393.78-26.35,48.22-52.71,101.79-39.53,155.37,7.91,26.78,31.63,56.25,57.98,48.22,15.81-2.68,28.99-18.75,39.53-32.14,26.35-37.5,71.16-93.76,115.97-150.01,63.26-80.36,123.87-155.37,123.87-155.37l7.91-10.71c-13.18,37.5-23.72,83.04-34.26,131.26-28.99,136.62-42.17,281.27-13.18,417.88,39.53,179.48,163.41,302.7,334.72,353.6,195.03,56.26,395.34-10.72,558.75-117.86,76.43-50.9,147.6-112.51,210.85-179.48,239.84-259.84,374.25-613.44,355.81-969.71Z" class="cls-1"></path></svg>